<?xml version="1.0" encoding="UTF-8"?>
<svg id="Camada_1" data-name="Camada 1" xmlns="http://www.w3.org/2000/svg" viewBox="47 52 805 207">
  <defs>
    <style>
      .cls-1 {
        fill: #896040;
      }

      .cls-2 {
        fill: #f8b014;
      }

      .cls-3 {
        fill: #f2efed;
      }
    </style>
  </defs>
  <g>
    <path class="cls-2" d="M342.76,192.43v4.74c0,6.91,3.45,10.36,10.36,10.36h29.33v-25.46h-29.33c-6.91,0-10.36,3.45-10.36,10.36Z"/>
    <path class="cls-2" d="M756.36,192.43v4.74c0,6.91,3.45,10.36,10.36,10.36h29.33v-25.46h-29.33c-6.91,0-10.36,3.45-10.36,10.36Z"/>
    <path class="cls-2" d="M809.07,52.59l-578.6.28-.15.07.15-.37-46.25,6.97-43.37-1.02-47.41,1.02-46.26-6.98,16.05,39.23v14.23l-8.9,16.85-5,109.23-8.84,35.26,43.99-6.98h108.73l43.99,6.98-.09-.34.09.04,614.62.3V95.29c0-23.59-19.13-42.71-42.71-42.69ZM193.77,252.99h-109.89l-33.48,5.31,6.3-25.1,4.96-108.32,8.57-16.22h95.97v-19.63h-96.09l-11.12-27.19,33.98,5.12,47.88-1.04,43.85,1.04,23.59-3.56,10.39-1.57-11.12,27.19h-14.95v19.63h14.76l7.11,16.22,6.49,108.32,6.3,25.1-11.06-1.75-22.43-3.56ZM315.18,107.42h-23.89c-6.91,0-10.36,3.46-10.36,10.36v13h32.49v14.93h-32.49v76.75h-17.04v-102.92c0-18.03,8.96-27.05,26.87-27.05h16.33l8.08,5.97v8.96ZM399.49,222.46h-46.72c-18.03,0-27.05-8.96-27.05-26.87s9.01-26.87,27.05-26.87h29.68v-12.82c0-6.79-3.4-10.19-10.19-10.19h-37.59v-8.96l8.08-5.97h29.86c17.91,0,26.87,8.96,26.87,26.87v64.81ZM475,145.71h-22.83c-4.57,0-7.79,1.17-9.66,3.51v73.24h-17.04v-80.79c4.1-7.26,11.88-10.89,23.36-10.89h18.09l8.08,5.97v8.96ZM510.3,222.46h-17.04v-91.68h17.04v91.68ZM510.83,114.27h-18.27v-18.62h18.27v18.62ZM614.28,222.46h-17.04v-66.56c0-6.79-3.4-10.19-10.19-10.19h-32.31v76.75h-17.04v-91.68h49.7c17.91,0,26.87,8.96,26.87,26.87v64.81ZM717.54,222.46h-17.04v-66.56c0-6.79-3.4-10.19-10.19-10.19h-32.31v76.75h-17.04V92.5h17.04v38.29h32.67c17.91,0,26.87,8.96,26.87,26.87v64.81ZM813.09,222.46h-46.72c-18.03,0-27.05-8.96-27.05-26.87s9.01-26.87,27.05-26.87h29.68v-12.82c0-6.79-3.4-10.19-10.19-10.19h-37.59v-8.96l8.08-5.97h29.86c17.91,0,26.87,8.96,26.87,26.87v64.81Z"/>
    <polygon class="cls-2" points="186.65 102.21 186.65 89.03 185.94 89.03 172.13 89.03 172.13 108.66 186.65 108.66 186.65 102.21"/>
    <polygon class="cls-2" points="77.72 153.54 77.72 199.57 191.88 199.57 198.39 199.57 198.39 153.54 189.4 153.54 77.72 153.54"/>
  </g>
  <g>
    <rect class="cls-3" x="77.72" y="226.57" width="98.28" height="7.93"/>
    <polygon class="cls-3" points="77.72 210.71 77.72 218.64 192.9 218.64 198.39 218.64 198.39 210.71 192.48 210.71 77.72 210.71"/>
    <rect class="cls-3" x="77.72" y="136.78" width="120.66" height="7.93"/>
    <rect class="cls-3" x="100.71" y="120.92" width="97.68" height="7.93"/>
    <rect class="cls-3" x="77.72" y="120.92" width="16.47" height="7.93"/>
    <polygon class="cls-3" points="181.91 226.57 181.91 234.5 193.75 234.5 198.39 234.5 198.39 226.57 193.33 226.57 181.91 226.57"/>
  </g>
  <g>
    <path class="cls-1" d="M214.47,124.88l-7.11-16.22h-14.76v-19.63h14.95l11.12-27.19-10.39,1.57-23.59,3.56-43.85-1.04-47.88,1.04-33.98-5.12,11.12,27.19h96.09v19.63h-95.97l-8.57,16.22-4.96,108.32-6.3,25.1,33.48-5.31h109.89l22.43,3.56,11.06,1.75-6.3-25.1-6.49-108.32ZM191.88,199.57h-114.15v-46.03h120.66v46.03h-6.51ZM198.39,210.71v7.93h-120.66v-7.93h120.66ZM77.72,144.72v-7.93h120.66v7.93h-120.66ZM77.72,226.57h98.28v7.93h-98.28v-7.93ZM181.91,234.5v-7.93h16.47v7.93h-16.47ZM186.65,102.21v6.45h-14.51v-19.63h14.51v13.17ZM100.71,120.92h97.68v7.93h-97.68v-7.93ZM94.19,120.92v7.93h-16.47v-7.93h16.47Z"/>
    <path class="cls-1" d="M290.77,92.5c-17.92,0-26.87,9.02-26.87,27.05v102.92h17.04v-76.75h32.49v-14.93h-32.49v-13c0-6.9,3.45-10.36,10.36-10.36h23.89v-8.96l-8.08-5.97h-16.33Z"/>
    <path class="cls-1" d="M372.61,130.78h-29.86l-8.08,5.97v8.96h37.59c6.79,0,10.19,3.4,10.19,10.19v12.82h-29.68c-18.03,0-27.05,8.96-27.05,26.87s9.01,26.87,27.05,26.87h46.72v-64.81c0-17.91-8.96-26.87-26.87-26.87ZM382.45,207.53h-29.33c-6.91,0-10.36-3.45-10.36-10.36v-4.74c0-6.91,3.45-10.36,10.36-10.36h29.33v25.46Z"/>
    <path class="cls-1" d="M448.83,130.78c-11.48,0-19.26,3.63-23.36,10.89v80.79h17.04v-73.24c1.87-2.34,5.09-3.51,9.66-3.51h22.83v-8.96l-8.08-5.97h-18.09Z"/>
    <rect class="cls-1" x="492.56" y="95.66" width="18.27" height="18.62"/>
    <rect class="cls-1" x="493.27" y="130.78" width="17.04" height="91.68"/>
    <path class="cls-1" d="M587.4,130.78h-49.7v91.68h17.04v-76.75h32.31c6.79,0,10.19,3.4,10.19,10.19v66.56h17.04v-64.81c0-17.91-8.96-26.87-26.87-26.87Z"/>
    <path class="cls-1" d="M690.67,130.78h-32.67v-38.29h-17.04v129.97h17.04v-76.75h32.31c6.79,0,10.19,3.4,10.19,10.19v66.56h17.04v-64.81c0-17.91-8.96-26.87-26.87-26.87Z"/>
    <path class="cls-1" d="M786.21,130.78h-29.86l-8.08,5.97v8.96h37.59c6.79,0,10.19,3.4,10.19,10.19v12.82h-29.68c-18.03,0-27.05,8.96-27.05,26.87s9.01,26.87,27.05,26.87h46.72v-64.81c0-17.91-8.96-26.87-26.87-26.87ZM796.05,207.53h-29.33c-6.91,0-10.36-3.45-10.36-10.36v-4.74c0-6.91,3.45-10.36,10.36-10.36h29.33v25.46Z"/>
  </g>
</svg>